<svg xmlns="http://www.w3.org/2000/svg" viewBox="0 0 614.08 214.22"><defs><style>.cls-1{font-size:110px;font-family:BakerSignetBT-Roman, BakerSignet BT;letter-spacing:0.17em;}.cls-1,.cls-2{fill:#fff;}</style></defs><g id="Layer_1" data-name="Layer 1"><text class="cls-1" transform="translate(77.92 144.98)">la pared</text><path class="cls-2" d="M810.68,638.3c1.16-1.21,2-4.35,2.44-9.42s.7-14.07.7-27q0-5.36-.07-20.1t-.07-24.22v-36q0-24.9-.66-33.3t-2.34-10l14.05-3.88q-.42,6.63-.56,32.38T824,589.87v18.51q0,16,.66,21.93c.44,4,1.23,6.62,2.34,8Z" transform="translate(-221.75 -424.09)"/><path class="cls-2" d="M221.75,424.09q7.2,1.89,28,2.64t76.81.75h64.8q200.8,0,291-.16t113.41-.63l-13.6,15.84q-5.61-1.89-35-2.64t-116.6-.75h-126q-33.21,0-84.81-.08t-70.4-.07q-68,0-94.61.78t-33,2.76Z" transform="translate(-221.75 -424.09)"/><polygon class="cls-2" points="577.41 18.8 594.49 36.82 614.08 18.4 597.18 0.04 577.41 18.8"/></g></svg>