<svg xmlns="http://www.w3.org/2000/svg" viewBox="0 0 614.083 214.217"><defs><style>.cls-1{fill:#fff;}</style></defs><g id="Layer_1" data-name="Layer 1"><path class="cls-1" d="M304.714,569.067a3.269,3.269,0,0,0,1.141-1.536,12.224,12.224,0,0,0,.739-2.894,49.6,49.6,0,0,0,.4-4.962q.135-3.175.135-7.741,0-1.263-.014-3.626t-.04-5.828q-.027-3.463-.04-6.31t-.014-5.076V514.175q0-5.854-.127-9.769t-.383-5.887a14.127,14.127,0,0,0-.7-3.149,2.929,2.929,0,0,0-1.094-1.552l5.4-.913,5.4-.913q-.162,1.558-.269,5.365t-.161,9.863q-.054,6.055-.081,15.825t-.026,23.249V555q0,3.76.127,6.338a32.311,32.311,0,0,0,.383,3.975,9.319,9.319,0,0,0,.7,2.336,3.764,3.764,0,0,0,1.094,1.423H304.714Z" transform="translate(-221.748 -424.087)"/><path class="cls-1" d="M373.056,569.712a17.88,17.88,0,0,1-.571-1.826q-.249-.967-.423-2.041t-.289-2.242q-.114-1.168-.168-2.431a18.783,18.783,0,0,1-2.511,3.942,15.18,15.18,0,0,1-3.236,2.907A14.017,14.017,0,0,1,362,569.813a16.435,16.435,0,0,1-9.654-.269,14.221,14.221,0,0,1-4.485-2.6,12.121,12.121,0,0,1-3.061-3.753,9.466,9.466,0,0,1-1.021-4.331,9.606,9.606,0,0,1,.846-4.014,10.922,10.922,0,0,1,2.538-3.452,28.047,28.047,0,0,1,5.384-3.625q3.693-2.042,9.387-4.539a54.573,54.573,0,0,0,5.451-2.725,10.688,10.688,0,0,0,2.82-2.162,6.332,6.332,0,0,0,1.128-2.471,15.512,15.512,0,0,0,.376-3.652,16.091,16.091,0,0,0-.558-4.5,7.58,7.58,0,0,0-1.671-3.1,6.881,6.881,0,0,0-2.867-1.793,12.872,12.872,0,0,0-4.142-.6,11.093,11.093,0,0,0-2.089.189,8.884,8.884,0,0,0-1.859.563,6.858,6.858,0,0,0-1.565.927,6.113,6.113,0,0,0-1.2,1.276,8.616,8.616,0,0,0-.511.913q-.3.591-.671,1.45a10.346,10.346,0,0,1-2.35,3.666,4.282,4.282,0,0,1-2.967,1.222,4.417,4.417,0,0,1-1.612-.282,3.764,3.764,0,0,1-2.135-2.149,4.6,4.6,0,0,1-.282-1.652,5.945,5.945,0,0,1,1.424-3.859,12.187,12.187,0,0,1,4.27-3.1,26.129,26.129,0,0,1,6.646-2.034,48.973,48.973,0,0,1,8.554-.678,27.668,27.668,0,0,1,6.237.611,10.982,10.982,0,0,1,4.21,1.833,7.4,7.4,0,0,1,2.4,3.256,13.344,13.344,0,0,1,.8,4.881q0,.456-.075,2.464t-.221,5.566q-.148,3.558-.222,6.908t-.073,6.492q0,4.029.235,7.191a43.591,43.591,0,0,0,.705,5.459,15.673,15.673,0,0,0,1.174,3.726,4.612,4.612,0,0,0,1.645,1.993L378,569.39Zm-1.665-27.07q-6.179,2.47-10.045,4.384a27.256,27.256,0,0,0-5.424,3.27,9.32,9.32,0,0,0-2.337,2.974,7.964,7.964,0,0,0-.778,3.5,6.82,6.82,0,0,0,.59,2.874,6.522,6.522,0,0,0,1.773,2.282,7.975,7.975,0,0,0,2.739,1.49,11.437,11.437,0,0,0,3.491.5,11.009,11.009,0,0,0,4.438-.825,7.593,7.593,0,0,0,3.109-2.478,11.522,11.522,0,0,0,1.833-4.209,26.185,26.185,0,0,0,.611-6.023v-7.734Z" transform="translate(-221.748 -424.087)"/><path class="cls-1" d="M458.5,599.844a7.319,7.319,0,0,0,1.188-2.545,25.5,25.5,0,0,0,.772-4.195q.282-2.513.423-6.547t.141-9.594v-22.72q0-9.291-.141-15.7t-.423-9.924a42.145,42.145,0,0,0-.772-5.693,7.468,7.468,0,0,0-1.188-3.008l5-.618,4.995-.617q-.054.618-.108,1.309t-.107,1.457q-.054.765-.107,1.833t-.107,2.437a38.634,38.634,0,0,1,3.907-3.028,28.687,28.687,0,0,1,3.881-2.209,20.706,20.706,0,0,1,3.759-1.349,14.8,14.8,0,0,1,3.545-.45,16.113,16.113,0,0,1,7.459,1.745,18.864,18.864,0,0,1,6.158,5.237,24.388,24.388,0,0,1,4.128,7.882,32.242,32.242,0,0,1,1.376,9.681,26.393,26.393,0,0,1-2.175,10.85,25.073,25.073,0,0,1-6.526,8.7A29.385,29.385,0,0,1,483.7,568.5,37.186,37.186,0,0,1,471.5,570.41q-.187,0-.672-.04t-1.262-.121c-.179-.018-.335-.036-.47-.054s-.246-.036-.335-.053v1.987c0,.054,0,.156-.014.309s-.022.353-.04.6q-.027,1.476-.04,2.9t-.014,2.793q0,5.425.135,9.2t.4,5.895a21.09,21.09,0,0,0,.738,3.625,7.836,7.836,0,0,0,1.141,2.391H458.5Zm9.668-51.885v3.169a41.962,41.962,0,0,0,.53,7.412,8.031,8.031,0,0,0,1.592,3.975,6.53,6.53,0,0,0,3.067,1.692,18.633,18.633,0,0,0,4.962.564,17.612,17.612,0,0,0,6.674-1.175,12.413,12.413,0,0,0,4.874-3.525,15.48,15.48,0,0,0,2.981-5.767,28.362,28.362,0,0,0,.994-7.9,32.3,32.3,0,0,0-1.068-8.58,22.415,22.415,0,0,0-3.2-6.942,15.072,15.072,0,0,0-4.814-4.592,11.681,11.681,0,0,0-5.9-1.531,11.41,11.41,0,0,0-2.4.262,14.339,14.339,0,0,0-2.484.786,12.774,12.774,0,0,0-2.216,1.161,7.818,7.818,0,0,0-1.6,1.389,6.161,6.161,0,0,0-.92,2.035,20.927,20.927,0,0,0-.61,3.31q-.23,1.974-.343,5.539T468.167,547.959Z" transform="translate(-221.748 -424.087)"/><path class="cls-1" d="M556.436,569.712a17.88,17.88,0,0,1-.571-1.826q-.249-.967-.424-2.041t-.288-2.242q-.114-1.168-.168-2.431a18.783,18.783,0,0,1-2.511,3.942,15.18,15.18,0,0,1-3.236,2.907,14.017,14.017,0,0,1-3.854,1.792,16.435,16.435,0,0,1-9.654-.269,14.21,14.21,0,0,1-4.485-2.6,12.14,12.14,0,0,1-3.062-3.753,9.478,9.478,0,0,1-1.02-4.331,9.606,9.606,0,0,1,.846-4.014,10.922,10.922,0,0,1,2.538-3.452,28.015,28.015,0,0,1,5.384-3.625q3.693-2.042,9.386-4.539a54.5,54.5,0,0,0,5.452-2.725,10.723,10.723,0,0,0,2.82-2.162,6.332,6.332,0,0,0,1.128-2.471,15.512,15.512,0,0,0,.376-3.652,16.091,16.091,0,0,0-.558-4.5,7.582,7.582,0,0,0-1.672-3.1A6.871,6.871,0,0,0,550,522.829a12.874,12.874,0,0,0-4.143-.6,11.09,11.09,0,0,0-2.088.189,8.911,8.911,0,0,0-1.86.563,6.873,6.873,0,0,0-1.564.927,6.087,6.087,0,0,0-1.2,1.276,8.616,8.616,0,0,0-.511.913q-.3.591-.671,1.45a10.346,10.346,0,0,1-2.35,3.666,4.286,4.286,0,0,1-2.967,1.222,4.417,4.417,0,0,1-1.612-.282,3.764,3.764,0,0,1-2.135-2.149,4.6,4.6,0,0,1-.282-1.652,5.95,5.95,0,0,1,1.423-3.859,12.2,12.2,0,0,1,4.271-3.1,26.129,26.129,0,0,1,6.646-2.034,48.973,48.973,0,0,1,8.554-.678,27.668,27.668,0,0,1,6.237.611,10.97,10.97,0,0,1,4.209,1.833,7.4,7.4,0,0,1,2.4,3.256,13.345,13.345,0,0,1,.8,4.881q0,.456-.074,2.464t-.221,5.566q-.149,3.558-.222,6.908t-.073,6.492q0,4.029.235,7.191a43.8,43.8,0,0,0,.7,5.459,15.715,15.715,0,0,0,1.175,3.726,4.606,4.606,0,0,0,1.645,1.993l-4.941.323Zm-1.665-27.07q-6.178,2.47-10.045,4.384a27.256,27.256,0,0,0-5.424,3.27,9.32,9.32,0,0,0-2.337,2.974,7.964,7.964,0,0,0-.778,3.5,6.82,6.82,0,0,0,.59,2.874,6.522,6.522,0,0,0,1.773,2.282,7.957,7.957,0,0,0,2.739,1.49,11.432,11.432,0,0,0,3.491.5,11.009,11.009,0,0,0,4.438-.825,7.584,7.584,0,0,0,3.108-2.478,11.506,11.506,0,0,0,1.834-4.209,26.185,26.185,0,0,0,.611-6.023v-7.734Z" transform="translate(-221.748 -424.087)"/><path class="cls-1" d="M593.786,569.067a3.756,3.756,0,0,0,1.094-1.416,9.212,9.212,0,0,0,.705-2.316,31.93,31.93,0,0,0,.383-3.941q.128-2.559.128-6.291V541.138q0-5.962-.128-9.856t-.383-5.72a13.271,13.271,0,0,0-.705-2.968,3.442,3.442,0,0,0-1.094-1.6q1.02-.16,2.263-.369t2.706-.463q1.462-.255,2.289-.383a10.04,10.04,0,0,1,1.014-.128q.831.027,1.275,1.169a10.619,10.619,0,0,1,.5,3.4q.027.7.053,1.235c.018.358.036.663.055.913a25.264,25.264,0,0,1,2.631-3.477,14.577,14.577,0,0,1,2.74-2.377,11,11,0,0,1,2.967-1.37,11.84,11.84,0,0,1,3.317-.456,9.3,9.3,0,0,1,2.417.289,5.75,5.75,0,0,1,1.88.866,3.9,3.9,0,0,1,1.208,1.336,3.56,3.56,0,0,1,.4,1.7,3.313,3.313,0,0,1-.275,1.384,2.741,2.741,0,0,1-.827,1.033,3.737,3.737,0,0,1-1.349.645,7.148,7.148,0,0,1-1.846.214c-.287,0-.667-.013-1.142-.04s-1.042-.067-1.705-.121-1.249-.094-1.759-.121-.944-.04-1.3-.04a8.245,8.245,0,0,0-3.74.752,4.733,4.733,0,0,0-2.2,2.256,16.836,16.836,0,0,0-1.067,5.049q-.356,3.545-.355,9.131,0,.805.013,2.363t.04,3.867q.027,2.31.04,4.217t.014,3.41q0,2.874.127,4.989a28.712,28.712,0,0,0,.384,3.471,9.241,9.241,0,0,0,.7,2.29,4.025,4.025,0,0,0,1.094,1.442H593.786Z" transform="translate(-221.748 -424.087)"/><path class="cls-1" d="M684.687,557.09v1.289a7.681,7.681,0,0,1-1.343,4.257,15.32,15.32,0,0,1-4.029,3.961,20.317,20.317,0,0,1-5.747,2.86,23.187,23.187,0,0,1-15.388-.785,19.082,19.082,0,0,1-6.9-5.217,23.26,23.26,0,0,1-4.431-8.157,35.026,35.026,0,0,1-1.477-10.562A34.425,34.425,0,0,1,646.927,534a23.211,23.211,0,0,1,4.674-8.272,20.046,20.046,0,0,1,7.277-5.277,23.859,23.859,0,0,1,9.373-1.759,21.909,21.909,0,0,1,6.915,1.027,16.1,16.1,0,0,1,5.492,3.082,13.113,13.113,0,0,1,4.78,10.392,3.214,3.214,0,0,1-.725,2.149,4.382,4.382,0,0,1-2.175,1.289,28.98,28.98,0,0,1-5.626.645q-4.176.215-11.078.214-2.041,0-3.632-.013t-2.733-.04q-1.142-.027-2.209-.067t-2.061-.094q-.214.725-.369,1.47t-.248,1.511q-.095.765-.141,1.591t-.047,1.712a28.732,28.732,0,0,0,1.094,8.265,18.036,18.036,0,0,0,3.283,6.318,14.153,14.153,0,0,0,5.136,4.008,15.955,15.955,0,0,0,6.654,1.335,18.751,18.751,0,0,0,3.887-.395,17.14,17.14,0,0,0,3.605-1.189,19.739,19.739,0,0,0,3.391-1.994A25.876,25.876,0,0,0,684.687,557.09ZM655.844,534.1h.967q.106,0,.771.027t1.887.08q1.222.054,2.41.081t2.344.026h1.4q3.652,0,5.9-.194a10.529,10.529,0,0,0,3.094-.584,2.707,2.707,0,0,0,1.27-1.134,3.7,3.7,0,0,0,.423-1.847,7.365,7.365,0,0,0-.652-3.1,8.161,8.161,0,0,0-1.953-2.625,8.856,8.856,0,0,0-2.908-1.793,9.992,9.992,0,0,0-3.511-.6,10.486,10.486,0,0,0-4.143.813,10.888,10.888,0,0,0-3.51,2.437,12.729,12.729,0,0,0-2.545,3.726A15.677,15.677,0,0,0,655.844,534.1Z" transform="translate(-221.748 -424.087)"/><path class="cls-1" d="M755.284,491.938q-.323,2.687-.6,7.514t-.5,11.8q-.23,6.969-.343,14.764t-.114,16.415q0,8.217.147,13.448t.443,7.473a16.954,16.954,0,0,0,.833,3.672,4.621,4.621,0,0,0,1.316,2.047l-5.156.323-5.157.322q-.135-.645-.228-1.255t-.148-1.188q-.054-.577-.08-1.175t-.027-1.216v-1.289a14.968,14.968,0,0,1-2.686,2.867,16.435,16.435,0,0,1-3.437,2.155,18.25,18.25,0,0,1-4.029,1.349,21.433,21.433,0,0,1-4.457.45,18.649,18.649,0,0,1-7.957-1.651,17.674,17.674,0,0,1-6.25-4.955,22.432,22.432,0,0,1-4.048-7.681,33.29,33.29,0,0,1-1.35-9.829,31.55,31.55,0,0,1,1.96-11.474,23.577,23.577,0,0,1,5.882-8.748,25.405,25.405,0,0,1,9.3-5.539,37.612,37.612,0,0,1,12.233-1.846q.912,0,1.658.013t1.322.04q.579.027,1.162.068c.39.026.781.058,1.175.093V507.354q0-3.142-.114-5.439a36.746,36.746,0,0,0-.342-3.746,15.974,15.974,0,0,0-.611-2.591,8.778,8.778,0,0,0-.92-1.974l5.559-.833ZM735.9,564.556a12.813,12.813,0,0,0,4.726-.779,6.983,6.983,0,0,0,3.115-2.337,11.33,11.33,0,0,0,1.732-4.605,41.719,41.719,0,0,0,.578-7.587q0-7.358-.047-12.058t-.142-6.741q-.093-2.04-.248-3.329a8.067,8.067,0,0,0-.369-1.827,3.362,3.362,0,0,0-.8-1.215,4.244,4.244,0,0,0-1.322-.852,7.927,7.927,0,0,0-1.86-.5,15.609,15.609,0,0,0-2.41-.168,19.27,19.27,0,0,0-7.7,1.464,16,16,0,0,0-5.894,4.39,19.449,19.449,0,0,0-3.747,6.956,30.93,30.93,0,0,0-1.248,9.157,28,28,0,0,0,1.094,8.111,19.043,19.043,0,0,0,3.284,6.391,14.594,14.594,0,0,0,5,4.15A13.974,13.974,0,0,0,735.9,564.556Z" transform="translate(-221.748 -424.087)"/><path class="cls-1" d="M810.676,638.3a7.623,7.623,0,0,0,1.485-3.269,39.824,39.824,0,0,0,.962-6.156q.348-3.8.523-10.552t.175-16.464q0-2.683-.017-7.711t-.052-12.394q-.034-7.368-.053-13.422t-.017-10.8V521.557q0-12.452-.166-20.776t-.5-12.524a46.866,46.866,0,0,0-.918-6.7,6.962,6.962,0,0,0-1.424-3.3l7.026-1.942,7.026-1.942q-.21,3.314-.35,11.409t-.21,20.976q-.071,12.882-.105,33.658t-.035,49.448v18.506q0,8,.166,13.481t.5,8.453a29.776,29.776,0,0,0,.918,4.968,8.681,8.681,0,0,0,1.424,3.028H810.676Z" transform="translate(-221.748 -424.087)"/><path class="cls-1" d="M221.748,424.087a70.976,70.976,0,0,0,10.6,1.607q7,.66,17.4,1.034t29.6.562q19.2.186,47.206.187h64.8q100.4,0,173.159-.04t117.861-.118q45.1-.078,73.453-.236t39.954-.4l-6.8,7.922-6.8,7.922q-2.8-.945-11.553-1.606t-23.449-1.034q-14.7-.375-43.854-.562t-72.755-.187H504.567q-16.605,0-37.8-.02t-47-.059q-25.8-.039-43.4-.059t-27-.02q-34,0-57.655.2t-36.951.59q-13.3.394-21.554,1.085a62.6,62.6,0,0,0-11.448,1.674V424.087Z" transform="translate(-221.748 -424.087)"/><polygon class="cls-1" points="577.414 18.8 585.954 27.808 594.494 36.816 604.288 27.609 614.083 18.402 605.633 9.223 597.183 0.044 587.298 9.422 577.414 18.8"/></g></svg>